G04 ================== begin FILE IDENTIFICATION RECORD ==================*
G04 Layout Name:  F:/对外项目/激光测距/Hardware/PCB/VL53L0X.brd*
G04 Film Name:    BOTTOM*
G04 File Format:  Gerber RS274X*
G04 File Origin:  Cadence Allegro 16.6-2015-S066*
G04 Origin Date:  Fri Sep 30 11:40:01 2016*
G04 *
G04 Layer:  VIA CLASS/BOTTOM*
G04 Layer:  PIN/BOTTOM*
G04 Layer:  ETCH/BOTTOM*
G04 Layer:  BOARD GEOMETRY/OUTLINE*
G04 *
G04 Offset:    (0.00 0.00)*
G04 Mirror:    No*
G04 Mode:      Positive*
G04 Rotation:  0*
G04 FullContactRelief:  No*
G04 UndefLineWidth:     1.00*
G04 ================== end FILE IDENTIFICATION RECORD ====================*
%FSLAX25Y25*MOIN*%
%IR0*IPPOS*OFA0.00000B0.00000*MIA0B0*SFA1.00000B1.00000*%
%ADD11C,.02*%
%ADD14C,.05906*%
%ADD12C,.06299*%
%ADD13R,.06299X.06299*%
%ADD19O,.06102X.0128*%
%ADD18R,.02264X.05512*%
%ADD15R,.01673X.0374*%
%ADD10C,.17717*%
%ADD17R,.01969X.02362*%
%ADD16R,.02362X.01969*%
%ADD20C,.01*%
%ADD21C,.012*%
%ADD22C,.001*%
%ADD23C,.008*%
%ADD25C,.08302*%
%ADD26C,.0791*%
%ADD27R,.08302X.08302*%
%ADD24C,.1972*%
G75*
%LPD*%
G75*
G36*
G01X15000Y1001D02*
G02X1001Y15000I0J13999D01*
G01Y122800D01*
G02X15000Y136799I13999J0D01*
G01X122800D01*
G02X136799Y122800I0J-13999D01*
G01Y15000D01*
G02X122800Y1001I-13999J0D01*
G01X101411D01*
Y9664D01*
X93109D01*
Y1001D01*
X91411D01*
Y9664D01*
X83109D01*
Y1001D01*
X81411D01*
Y9664D01*
X73109D01*
Y1001D01*
X39210D01*
G02X39039Y1762I0J400D01*
G03X35481I-1779J3751D01*
G02X35310Y1001I-171J-361D01*
G01X15000D01*
G37*
%LPC*%
G75*
G36*
G01X26644Y110850D02*
Y107744D01*
G02X23640I-1502J-1324D01*
G01Y112094D01*
X32368Y120822D01*
X35074D01*
X35391Y121138D01*
X58035D01*
X59362Y119812D01*
X60146D01*
G02Y116808I1324J-1502D01*
G01X58118D01*
X56791Y118136D01*
X36635D01*
X36318Y117818D01*
X33612D01*
X26644Y110850D01*
G37*
G36*
G01X50952Y6940D02*
X50993Y6821D01*
G02X48568Y9246I-3733J-1308D01*
G01X48687Y9205D01*
X50212Y10729D01*
Y11984D01*
G03X49577Y12308I-400J0D01*
G02Y18718I-2317J3205D01*
G03X50212Y19042I235J324D01*
G01Y21469D01*
G02X50068Y24041I1458J1372D01*
G01Y26251D01*
X34458Y41861D01*
Y59551D01*
X31411Y62599D01*
X31391Y62611D01*
G02X32449Y66312I1058J1699D01*
G01X33359D01*
X38462Y61209D01*
Y43519D01*
X52289Y29692D01*
X81282D01*
G03X81658Y30228I0J400D01*
G02X81938Y32111I1882J682D01*
G01Y39717D01*
X71962Y49694D01*
X44022D01*
X43038Y50677D01*
X42976Y50688D01*
G02X45302Y52943I344J1972D01*
G01X45348Y52896D01*
X73288D01*
X85142Y41043D01*
Y32111D01*
G02X85422Y30228I-1602J-1201D01*
G03X85798Y29692I376J-136D01*
G01X112731D01*
X116865Y33825D01*
G02X117810Y34356I1416J-1414D01*
G01X117865Y34369D01*
X120968Y37472D01*
Y39950D01*
G03X120286Y40233I-400J0D01*
G02Y45827I-2796J2797D01*
G03X120968Y46110I282J283D01*
G01Y49950D01*
G03X120286Y50233I-400J0D01*
G02Y55827I-2796J2797D01*
G03X120968Y56110I282J283D01*
G01Y58792D01*
X120012Y59748D01*
X117426D01*
Y61368D01*
X114965D01*
G03X114586Y60839I0J-400D01*
G02X113032Y58668I-1554J-529D01*
G01X108210D01*
G02X107029Y61451I0J1642D01*
G03Y61728I-144J138D01*
G02X106600Y63189I1181J1140D01*
G03X106208Y63666I-392J77D01*
G01X103300D01*
X102537Y64429D01*
X102465Y64436D01*
G02X100743Y65846I193J1993D01*
G03X100077Y66012I-383J-116D01*
G01X95332Y61268D01*
X92456D01*
G03X92071Y60758I0J-400D01*
G02X90492Y58668I-1579J-449D01*
G01X85670D01*
G02X84489Y61451I0J1642D01*
G03Y61728I-144J138D01*
G02X84116Y63398I1181J1140D01*
G03X83738Y63926I-379J128D01*
G01X82340D01*
X77248Y69018D01*
Y84875D01*
X74819Y87305D01*
X73576D01*
Y86892D01*
X69604D01*
Y87305D01*
X66042D01*
Y87790D01*
X62317D01*
X59708Y90398D01*
Y104702D01*
X57802Y106608D01*
X55578D01*
G03X55295Y105926I0J-400D01*
G01X58702Y102519D01*
Y80891D01*
X42095Y64285D01*
G02X39265Y67115I-1415J1415D01*
G01X54698Y82549D01*
Y100861D01*
X50048Y105511D01*
Y113089D01*
X52311Y115352D01*
X64806D01*
X66262Y116807D01*
Y119868D01*
X69888D01*
X73722Y123702D01*
X93993D01*
X99673Y118022D01*
X102272D01*
Y115577D01*
X103425Y114424D01*
G03X104108Y114706I283J283D01*
G01Y118022D01*
X105519D01*
G03X105802Y118704I0J400D01*
G01X97088Y127418D01*
X92534D01*
G02Y130422I-1324J1502D01*
G01X98332D01*
X119861Y108893D01*
G03X120524Y109053I283J283D01*
G02X123932Y107116I1906J-613D01*
G01Y77632D01*
X130664Y70899D01*
X130735Y70892D01*
G02X128548Y68705I-195J-1992D01*
G01X128541Y68776D01*
X122054Y75262D01*
G03X121372Y74979I-282J-283D01*
G01Y70054D01*
G02X118368I-1502J-1324D01*
G01Y106138D01*
X108467Y116040D01*
G03X107784Y115757I-283J-283D01*
G01Y112278D01*
X104822D01*
Y111602D01*
X107784D01*
Y105858D01*
X104822D01*
Y105562D01*
X104952Y105432D01*
X107784D01*
Y99688D01*
X105738D01*
G03X105597Y99346I0J-200D01*
G01X105822Y99122D01*
X107784D01*
Y93378D01*
X104822D01*
Y92942D01*
X104882Y92882D01*
X107784D01*
Y87138D01*
X104822D01*
Y73780D01*
G03X105282Y73385I400J0D01*
G02X106147Y73327I302J-1979D01*
G03X106642Y73592I113J383D01*
G02X107029Y74247I1569J-485D01*
G03Y74524I-144J138D01*
G02Y76806I1181J1141D01*
G03Y77083I-144J139D01*
G02Y79365I1181J1141D01*
G03Y79642I-144J138D01*
G02Y81924I1181J1141D01*
G03Y82201I-144J138D01*
G02X108210Y84984I1181J1141D01*
G01X113032D01*
G02X114213Y82201I0J-1642D01*
G03Y81924I144J-138D01*
G02Y79642I-1181J-1141D01*
G03Y79365I144J-139D01*
G02Y77083I-1181J-1141D01*
G03Y76806I144J-138D01*
G02Y74524I-1181J-1141D01*
G03Y74247I144J-138D01*
G02X114212Y71965I-1181J-1140D01*
G01X114156Y71907D01*
Y71745D01*
X114212Y71687D01*
G02X114213Y69405I-1180J-1142D01*
G03Y69128I144J-138D01*
G02Y66846I-1181J-1141D01*
G03Y66569I144J-138D01*
G02X114586Y64899I-1181J-1140D01*
G03X114965Y64370I379J-129D01*
G01X117426D01*
Y65492D01*
X121102D01*
Y62905D01*
X122255Y61752D01*
G03X122938Y62035I283J283D01*
G01Y65492D01*
X126614D01*
Y59748D01*
X123972D01*
Y56070D01*
G03X124658Y55791I400J0D01*
G02Y50269I2832J-2761D01*
G03X123972Y49990I-286J-279D01*
G01Y46070D01*
G03X124658Y45791I400J0D01*
G02Y40269I2832J-2761D01*
G03X123972Y39990I-286J-279D01*
G01Y36228D01*
X120279Y32536D01*
X120281Y32451D01*
G02X119695Y30995I-2001J-41D01*
G01X114389Y25688D01*
X53272D01*
Y24041D01*
G02X53414Y21858I-1602J-1200D01*
G01Y18176D01*
G03X54131Y17932I400J0D01*
G02Y13094I3129J-2419D01*
G03X53414Y12850I-317J-244D01*
G01Y9403D01*
X50952Y6940D01*
G37*
G54D25*
X97260Y15513D03*
X87260D03*
X77260D03*
G54D26*
X67260D03*
Y5513D03*
X57260D03*
G54D27*
X37260Y15513D03*
G54D24*
X121800Y121800D03*
Y16000D03*
X16000Y121800D03*
Y16000D03*
%LPD*%
G75*
G36*
G01X63561Y90792D02*
X62712Y91642D01*
Y105948D01*
G02X63015Y106608I303J260D01*
G01X64404D01*
Y107978D01*
X67026D01*
Y106588D01*
X67362D01*
Y103875D01*
X66042D01*
Y90792D01*
X63561D01*
G37*
G36*
G01X70406Y91256D02*
Y99884D01*
X72774D01*
Y91256D01*
X70406D01*
G37*
G36*
G01X72538Y109901D02*
G02X71855Y109618I-400J0D01*
G01X70702Y110771D01*
Y112332D01*
X70528D01*
Y115979D01*
X72469Y117919D01*
G02X73152Y117636I283J-283D01*
G01Y112332D01*
X72538D01*
Y109901D01*
G37*
G36*
G01X84851Y84765D02*
G02X84252Y85111I-199J346D01*
G01Y95452D01*
X79442Y100262D01*
X77138D01*
Y103875D01*
X76458D01*
Y104956D01*
X75508Y105906D01*
G02X75791Y106588I283J282D01*
G01X76214D01*
Y112352D01*
X77418D01*
Y119868D01*
X74900D01*
G02X74759Y120209I0J200D01*
G01X75048Y120498D01*
X92667D01*
X98596Y114569D01*
Y112278D01*
X101041D01*
X101376Y111943D01*
G02X101235Y111602I-141J-141D01*
G01X98596D01*
Y109015D01*
X91158Y101578D01*
Y85452D01*
X90682Y84975D01*
X90592Y84980D01*
G03X90492Y84984I-116J-1637D01*
G01X85670D01*
G03X84851Y84765I0J-1641D01*
G37*
G54D10*
X16000Y16000D03*
Y121800D03*
X121800Y16000D03*
Y121800D03*
G54D20*
G01X61470Y118310D02*
X58740D01*
X57413Y119637D01*
X36013D01*
X35696Y119320D01*
X32990D01*
X25142Y111472D01*
Y106420D01*
G01X68224Y92440D02*
X65430D01*
G01X57054Y109480D02*
X61210Y105324D01*
Y91020D01*
X62939Y89291D01*
X68224D01*
G01Y95590D02*
X65510D01*
G01X68224Y98740D02*
X65600D01*
G01X62566Y109480D02*
X68844D01*
G01X71590Y89074D02*
X71546D01*
G01X71590D02*
Y85893D01*
G01X74956Y89291D02*
X78750Y85497D01*
Y69640D01*
X82962Y65428D01*
X88081D01*
G01X71590Y98885D02*
Y102066D01*
G01X74956Y95590D02*
X78530D01*
X80820Y93300D01*
Y71860D01*
X84693Y67987D01*
X88081D01*
G01X74956Y101889D02*
Y104334D01*
X72239Y107051D01*
Y107111D01*
X69890Y109460D01*
X68864D01*
G01D02*
Y102529D01*
X68224Y101889D01*
G01X88081Y70546D02*
X85074D01*
X82750Y72870D01*
Y94830D01*
X78820Y98760D01*
X74976D01*
X74956Y98740D01*
G01X74376Y109460D02*
X76780D01*
G01X68395Y116110D02*
Y109929D01*
X68844Y109480D01*
G01D02*
X68864Y109460D01*
G01X75285Y116110D02*
X78940D01*
G01X100434Y90010D02*
X98490Y88066D01*
Y70240D01*
X93678Y65428D01*
X88081D01*
G01Y67987D02*
X88204Y68110D01*
X93100D01*
X96490Y71500D01*
Y92850D01*
X99890Y96250D01*
X100434D01*
G01X88081Y70546D02*
X88205Y70670D01*
X93060D01*
X94580Y72190D01*
Y99010D01*
X98130Y102560D01*
X100434D01*
G01X88081Y83342D02*
X91172D01*
X92660Y84830D01*
Y100956D01*
X100434Y108730D01*
G01X119870Y68730D02*
Y106760D01*
X97710Y128920D01*
X91210D01*
G01X102658Y66429D02*
X102661D01*
X103922Y65168D01*
X110361D01*
X110621Y65428D01*
G01Y62869D02*
X119015D01*
X119264Y62620D01*
G01X105256Y67930D02*
X105313Y67987D01*
X110621D01*
G01X105582Y71406D02*
X105734D01*
X106594Y70546D01*
X110621D01*
G01X105946Y90010D02*
X105630D01*
X103220Y92420D01*
G01X105946Y102560D02*
X105700D01*
X103220Y105040D01*
G01X105946Y96250D02*
Y96874D01*
X103220Y99600D01*
G01X105946Y108730D02*
Y115150D01*
G01X108910Y114170D02*
X107930Y115150D01*
G01D02*
X105946D01*
G01X119264Y62620D02*
X122470Y59414D01*
Y36850D01*
X118280Y32660D01*
Y32410D01*
G01X124776Y62620D02*
Y60694D01*
X126220Y59250D01*
G01X130540Y68900D02*
X122430Y77010D01*
Y108440D01*
G54D11*
G01X51460Y27690D02*
X36460Y42690D01*
Y60380D01*
X32530Y64310D01*
X32449D01*
G01X68395Y116110D02*
X65635Y113350D01*
X53140D01*
X52050Y112260D01*
Y106340D01*
X56700Y101690D01*
Y81720D01*
X40680Y65700D01*
G01X118280Y32410D02*
X113560Y27690D01*
X51460D01*
X7374Y29274D03*
Y38166D03*
X4950Y51450D03*
X7374Y60754D03*
X5430Y70590D03*
X17680Y101180D03*
X24600Y42010D03*
X28035Y62766D03*
X29300Y71930D03*
X29100Y78350D03*
X29440Y91190D03*
X25829Y100209D03*
X25142Y106420D03*
X33910Y29050D03*
X31690Y53900D03*
X32449Y64310D03*
X38387Y105493D03*
X31754Y129366D03*
X34660Y121820D03*
X43320Y52660D03*
X40680Y65700D03*
X51670Y22840D03*
X56045Y53895D03*
Y62805D03*
X53600Y93150D03*
X59814Y81896D03*
X65430Y92440D03*
X65510Y95590D03*
X65600Y98740D03*
X61470Y118310D03*
X59814Y127954D03*
X75372Y39968D03*
X73984Y58874D03*
X71590Y85893D03*
Y98885D03*
X83540Y30910D03*
X84260Y54340D03*
X76780Y109460D03*
X78940Y116110D03*
X92880Y24690D03*
X88762Y40098D03*
X85405Y87105D03*
X91505Y112835D03*
X91210Y128920D03*
X102658Y66429D03*
X105256Y67930D03*
X105582Y71406D03*
X108910Y114170D03*
X109830Y120750D03*
X118280Y32410D03*
X119870Y68730D03*
X113406Y89786D03*
X113740Y98410D03*
X126220Y59250D03*
X130540Y68900D03*
X122200Y66590D03*
X125639Y98410D03*
X126130Y95904D03*
X122430Y108440D03*
X126210Y108410D03*
X126340Y103410D03*
G54D21*
G01X51670Y22840D02*
X51813Y22697D01*
Y10066D01*
X47260Y5513D01*
G01X83540Y30910D02*
Y40380D01*
X72625Y51295D01*
X44685D01*
X43320Y52660D01*
G01X51670Y22840D02*
Y27480D01*
X51460Y27690D01*
G01X68395Y116110D02*
X74385Y122100D01*
X93330D01*
X100280Y115150D01*
X100434D01*
G01X103220Y92420D02*
Y72722D01*
X102982Y72484D01*
Y71182D01*
X94669Y62869D01*
X88081D01*
G01X100434Y115150D02*
X103220Y112364D01*
Y105040D01*
G01Y99600D02*
Y92420D01*
G01Y105040D02*
Y99600D01*
G54D12*
X37260Y5513D03*
X77260Y15513D03*
X87260D03*
X97260D03*
G54D22*
G01X15000Y0D02*
X122800D01*
G03X137800Y15000I0J15000D01*
G01Y122800D01*
G03X122800Y137800I-15000J0D01*
G01X15000D01*
G03X0Y122800I0J-15000D01*
G01Y15000D01*
G03X15000Y0I15000J0D01*
G54D13*
X37260Y15513D03*
X77260Y5513D03*
X87260D03*
X97260D03*
G54D23*
G01X5939Y16000D02*
X16000D01*
G01X5939Y121800D02*
X16000D01*
G01Y5939D02*
Y16000D01*
G01D02*
Y26061D01*
G01Y16000D02*
X26061D01*
G01X16000Y111739D02*
Y121800D01*
G01D02*
Y131861D01*
G01Y121800D02*
X26061D01*
G01X37260Y5513D02*
Y9865D01*
G01X32908Y5513D02*
X37260D01*
G01D02*
X41612D01*
G01X47260Y11358D02*
Y15513D01*
G01D02*
Y19668D01*
G01X43105Y15513D02*
X47260D01*
G01X72951Y116110D02*
X75285D01*
G01D02*
Y120068D01*
G01X92908Y5513D02*
X97260D01*
G01D02*
Y9865D01*
G01Y5513D02*
X101612D01*
G01X110621Y83342D02*
Y85184D01*
G01X106368Y83342D02*
X110621D01*
G01D02*
X114874D01*
G01X105946Y105658D02*
Y108730D01*
G01D02*
X107985D01*
G01X111739Y16000D02*
X121800D01*
G01X117490Y38875D02*
Y43030D01*
G01D02*
Y47185D01*
G01X113335Y43030D02*
X117490D01*
G01X111739Y121800D02*
X121800D01*
G01Y5939D02*
Y16000D01*
G01D02*
Y26061D01*
G01Y16000D02*
X131861D01*
G01X127490Y38875D02*
Y43030D01*
G01D02*
Y47185D01*
G01Y43030D02*
X131645D01*
G01X124776Y62620D02*
Y65692D01*
G01X122737Y62620D02*
X124776D01*
G01D02*
X126815D01*
G01X121800Y111739D02*
Y121800D01*
G01D02*
Y131861D01*
G01Y121800D02*
X131861D01*
G54D14*
X47260Y5513D03*
Y15513D03*
X57260Y5513D03*
Y15513D03*
X67260Y5513D03*
Y15513D03*
X117490Y43030D03*
Y53030D03*
X127490Y43030D03*
Y53030D03*
G54D15*
X62566Y109480D03*
X57054D03*
X68864Y109460D03*
X74376D03*
X100434Y90010D03*
Y102560D03*
Y96250D03*
Y108730D03*
Y115150D03*
X105946Y90010D03*
Y102560D03*
Y96250D03*
Y108730D03*
Y115150D03*
X119264Y62620D03*
X124776D03*
G54D16*
X68224Y92440D03*
Y89291D03*
X74956D03*
Y92440D03*
X68224Y101889D03*
Y98740D03*
Y95590D03*
X74956D03*
Y98740D03*
Y101889D03*
G54D17*
X71590Y89074D03*
Y102066D03*
G54D18*
X68395Y116110D03*
X75285D03*
G54D19*
X88081Y65428D03*
Y62869D03*
Y60310D03*
Y73106D03*
Y70546D03*
Y67987D03*
Y83342D03*
Y80783D03*
Y78224D03*
Y75665D03*
X110621Y60310D03*
Y62869D03*
Y65428D03*
Y67987D03*
Y70546D03*
Y73106D03*
Y75665D03*
Y78224D03*
Y80783D03*
Y83342D03*
M02*
