G04 ================== begin FILE IDENTIFICATION RECORD ==================*
G04 Layout Name:  F:/对外项目/激光测距/Hardware/PCB/VL53L0X.brd*
G04 Film Name:    DRILL*
G04 File Format:  Gerber RS274X*
G04 File Origin:  Cadence Allegro 16.6-2015-S066*
G04 Origin Date:  Fri Sep 30 11:40:01 2016*
G04 *
G04 Layer:  BOARD GEOMETRY/OUTLINE*
G04 Layer:  MANUFACTURING/NCDRILL_FIGURE*
G04 Layer:  MANUFACTURING/NCDRILL_LEGEND*
G04 Layer:  MANUFACTURING/NCLEGEND-1-2*
G04 *
G04 Offset:    (0.00 0.00)*
G04 Mirror:    No*
G04 Mode:      Positive*
G04 Rotation:  0*
G04 FullContactRelief:  No*
G04 UndefLineWidth:     1.00*
G04 ================== end FILE IDENTIFICATION RECORD ====================*
%FSLAX25Y25*MOIN*%
%IR0*IPPOS*OFA0.00000B0.00000*MIA0B0*SFA1.00000B1.00000*%
%AMMACRO12*
1,1,.001,.02067,0.0*
20,1,.001,.02067,0.0,.010335,.017901,0.0*
1,1,.001,.010335,.017901*
20,1,.001,.010335,.017901,-.010335,.017901,0.0*
1,1,.001,-.010335,.017901*
20,1,.001,-.010335,.017901,-.02067,0.0,0.0*
1,1,.001,-.02067,0.0*
20,1,.001,-.02067,0.0,-.010335,-.017901,0.0*
1,1,.001,-.010335,-.017901*
20,1,.001,-.010335,-.017901,.010335,-.017901,0.0*
1,1,.001,.010335,-.017901*
20,1,.001,.010335,-.017901,.02067,0.0,0.0*
1,1,.001,.02067,0.0*
1,1,.001,-.00861,-.01033*
20,1,.001,-.00861,-.01033,0.0,.01034,0.0*
1,1,.001,0.0,.01034*
20,1,.001,0.0,.01034,.00862,-.01033,0.0*
1,1,.001,.00862,-.01033*
1,1,.001,.00552,-.0031*
20,1,.001,.00552,-.0031,-.00551,-.0031,0.0*
1,1,.001,-.00551,-.0031*
%
%ADD12MACRO12*%
%AMMACRO13*
1,1,.001,.017715,0.0*
20,1,.001,.017715,0.0,.008858,.015342,0.0*
1,1,.001,.008858,.015342*
20,1,.001,.008858,.015342,-.008857,.015342,0.0*
1,1,.001,-.008857,.015342*
20,1,.001,-.008857,.015342,-.017715,0.0,0.0*
1,1,.001,-.017715,0.0*
20,1,.001,-.017715,0.0,-.008858,-.015342,0.0*
1,1,.001,-.008858,-.015342*
20,1,.001,-.008858,-.015342,.008857,-.015342,0.0*
1,1,.001,.008857,-.015342*
20,1,.001,.008857,-.015342,.017715,0.0,0.0*
1,1,.001,.017715,0.0*
1,1,.001,-.00737,-.00885*
20,1,.001,-.00737,-.00885,0.0,.00886,0.0*
1,1,.001,0.0,.00886*
20,1,.001,0.0,.00886,.00738,-.00885,0.0*
1,1,.001,.00738,-.00885*
1,1,.001,.00473,-.00265*
20,1,.001,.00473,-.00265,-.00472,-.00265,0.0*
1,1,.001,-.00472,-.00265*
%
%ADD13MACRO13*%
%AMMACRO10*
1,1,.001,0.0,.06299*
20,1,.001,0.0,.06299,.010938,.062033,0.0*
1,1,.001,.010938,.062033*
20,1,.001,.010938,.062033,.021544,.059191,0.0*
1,1,.001,.021544,.059191*
20,1,.001,.021544,.059191,.031495,.054551,0.0*
1,1,.001,.031495,.054551*
20,1,.001,.031495,.054551,.040489,.048253,0.0*
1,1,.001,.040489,.048253*
20,1,.001,.040489,.048253,.048253,.040489,0.0*
1,1,.001,.048253,.040489*
20,1,.001,.048253,.040489,.054551,.031495,0.0*
1,1,.001,.054551,.031495*
20,1,.001,.054551,.031495,.059191,.021544,0.0*
1,1,.001,.059191,.021544*
20,1,.001,.059191,.021544,.062033,.010938,0.0*
1,1,.001,.062033,.010938*
20,1,.001,.062033,.010938,.06299,0.0,0.0*
1,1,.001,.06299,0.0*
20,1,.001,.06299,0.0,.062033,-.010938,0.0*
1,1,.001,.062033,-.010938*
20,1,.001,.062033,-.010938,.059191,-.021544,0.0*
1,1,.001,.059191,-.021544*
20,1,.001,.059191,-.021544,.054551,-.031495,0.0*
1,1,.001,.054551,-.031495*
20,1,.001,.054551,-.031495,.048253,-.040489,0.0*
1,1,.001,.048253,-.040489*
20,1,.001,.048253,-.040489,.040489,-.048253,0.0*
1,1,.001,.040489,-.048253*
20,1,.001,.040489,-.048253,.031495,-.054551,0.0*
1,1,.001,.031495,-.054551*
20,1,.001,.031495,-.054551,.021544,-.059191,0.0*
1,1,.001,.021544,-.059191*
20,1,.001,.021544,-.059191,.010938,-.062033,0.0*
1,1,.001,.010938,-.062033*
20,1,.001,.010938,-.062033,0.0,-.06299,0.0*
1,1,.001,0.0,-.06299*
20,1,.001,0.0,-.06299,-.010938,-.062033,0.0*
1,1,.001,-.010938,-.062033*
20,1,.001,-.010938,-.062033,-.021544,-.059191,0.0*
1,1,.001,-.021544,-.059191*
20,1,.001,-.021544,-.059191,-.031495,-.054551,0.0*
1,1,.001,-.031495,-.054551*
20,1,.001,-.031495,-.054551,-.040489,-.048253,0.0*
1,1,.001,-.040489,-.048253*
20,1,.001,-.040489,-.048253,-.048253,-.040489,0.0*
1,1,.001,-.048253,-.040489*
20,1,.001,-.048253,-.040489,-.054551,-.031495,0.0*
1,1,.001,-.054551,-.031495*
20,1,.001,-.054551,-.031495,-.059191,-.021544,0.0*
1,1,.001,-.059191,-.021544*
20,1,.001,-.059191,-.021544,-.062033,-.010938,0.0*
1,1,.001,-.062033,-.010938*
20,1,.001,-.062033,-.010938,-.06299,0.0,0.0*
1,1,.001,-.06299,0.0*
20,1,.001,-.06299,0.0,-.062033,.010938,0.0*
1,1,.001,-.062033,.010938*
20,1,.001,-.062033,.010938,-.059191,.021544,0.0*
1,1,.001,-.059191,.021544*
20,1,.001,-.059191,.021544,-.054551,.031495,0.0*
1,1,.001,-.054551,.031495*
20,1,.001,-.054551,.031495,-.048253,.040489,0.0*
1,1,.001,-.048253,.040489*
20,1,.001,-.048253,.040489,-.040489,.048253,0.0*
1,1,.001,-.040489,.048253*
20,1,.001,-.040489,.048253,-.031495,.054551,0.0*
1,1,.001,-.031495,.054551*
20,1,.001,-.031495,.054551,-.021544,.059191,0.0*
1,1,.001,-.021544,.059191*
20,1,.001,-.021544,.059191,-.010938,.062033,0.0*
1,1,.001,-.010938,.062033*
20,1,.001,-.010938,.062033,0.0,.06299,0.0*
1,1,.001,0.0,.06299*
1,1,.001,-.02624,-.03149*
20,1,.001,-.02624,-.03149,0.0,.0315,0.0*
1,1,.001,0.0,.0315*
20,1,.001,0.0,.0315,.02625,-.03149,0.0*
1,1,.001,.02625,-.03149*
1,1,.001,.0168,-.00944*
20,1,.001,.0168,-.00944,-.01679,-.00944,0.0*
1,1,.001,-.01679,-.00944*
%
%ADD10MACRO10*%
%AMMACRO11*
1,1,.001,.006,0.0*
20,1,.001,.006,0.0,.003,.005196,0.0*
1,1,.001,.003,.005196*
20,1,.001,.003,.005196,-.003,.005196,0.0*
1,1,.001,-.003,.005196*
20,1,.001,-.003,.005196,-.006,0.0,0.0*
1,1,.001,-.006,0.0*
20,1,.001,-.006,0.0,-.003,-.005196,0.0*
1,1,.001,-.003,-.005196*
20,1,.001,-.003,-.005196,.003,-.005196,0.0*
1,1,.001,.003,-.005196*
20,1,.001,.003,-.005196,.006,0.0,0.0*
1,1,.001,.006,0.0*
1,1,.001,-.0025,-.003*
20,1,.001,-.0025,-.003,0.0,.003,0.0*
1,1,.001,0.0,.003*
20,1,.001,0.0,.003,.0025,-.003,0.0*
1,1,.001,.0025,-.003*
1,1,.001,.0016,-.0009*
20,1,.001,.0016,-.0009,-.0016,-.0009,0.0*
1,1,.001,-.0016,-.0009*
%
%ADD11MACRO11*%
%ADD14C,.001*%
G75*
%LPD*%
G75*
G54D10*
X16000Y16000D03*
Y121800D03*
X121800Y16000D03*
Y121800D03*
X191390Y-13260D03*
G54D11*
X7374Y29274D03*
Y38166D03*
X4950Y51450D03*
X7374Y60754D03*
X5430Y70590D03*
X17680Y101180D03*
X24600Y42010D03*
X28035Y62766D03*
X29300Y71930D03*
X29100Y78350D03*
X29440Y91190D03*
X25829Y100209D03*
X25142Y106420D03*
X33910Y29050D03*
X31690Y53900D03*
X32449Y64310D03*
X38387Y105493D03*
X31754Y129366D03*
X34660Y121820D03*
X43320Y52660D03*
X40680Y65700D03*
X51670Y22840D03*
X56045Y53895D03*
Y62805D03*
X53600Y93150D03*
X59814Y81896D03*
X65430Y92440D03*
X65510Y95590D03*
X65600Y98740D03*
X61470Y118310D03*
X59814Y127954D03*
X75372Y39968D03*
X73984Y58874D03*
X71590Y85893D03*
Y98885D03*
X83540Y30910D03*
X84260Y54340D03*
X76780Y109460D03*
X78940Y116110D03*
X92880Y24690D03*
X88762Y40098D03*
X85405Y87105D03*
X91505Y112835D03*
X91210Y128920D03*
X102658Y66429D03*
X105256Y67930D03*
X105582Y71406D03*
X108910Y114170D03*
X109830Y120750D03*
X118280Y32410D03*
X119870Y68730D03*
X113406Y89786D03*
X113740Y98410D03*
X126220Y59250D03*
X130540Y68900D03*
X122200Y66590D03*
X125639Y98410D03*
X126130Y95904D03*
X122430Y108440D03*
X126210Y108410D03*
X126340Y103410D03*
X191390Y61740D03*
G54D12*
X37260Y5513D03*
Y15513D03*
X77260Y5513D03*
Y15513D03*
X87260Y5513D03*
Y15513D03*
X97260Y5513D03*
Y15513D03*
X191390Y11740D03*
G54D13*
X47260Y5513D03*
Y15513D03*
X57260Y5513D03*
Y15513D03*
X67260Y5513D03*
Y15513D03*
X117490Y43030D03*
Y53030D03*
X127490Y43030D03*
Y53030D03*
X191390Y36740D03*
G54D14*
G01X15000Y0D02*
X122800D01*
G03X137800Y15000I0J15000D01*
G01Y122800D01*
G03X122800Y137800I-15000J0D01*
G01X15000D01*
G03X0Y122800I0J-15000D01*
G01Y15000D01*
G03X15000Y0I15000J0D01*
G01X146440Y-25760D02*
Y149240D01*
X630040D01*
Y-25760D01*
X146440D01*
G01Y-760D02*
X630040D01*
G01X146440Y24240D02*
X630040D01*
G01X146440Y49240D02*
X630040D01*
G01X146440Y74240D02*
X630040D01*
G01X146440Y99240D02*
X630040D01*
G01X146440Y124240D02*
X630040D01*
G01X157445Y80490D02*
Y92990D01*
X163335D01*
G01X161165Y86948D02*
X157445D01*
G01X170930Y92990D02*
X174650D01*
G01X172790D02*
Y80490D01*
G01X170930D02*
X174650D01*
G01X186120Y86740D02*
X189220D01*
Y82990D01*
X188290Y81740D01*
X187205Y80907D01*
X185655Y80490D01*
X184105Y80907D01*
X183020Y81740D01*
X182090Y82990D01*
X181470Y84448D01*
X181160Y86115D01*
Y87573D01*
X181470Y88823D01*
X182090Y90282D01*
X183020Y91532D01*
X183950Y92365D01*
X185190Y92990D01*
X186275D01*
X187515Y92573D01*
X188445Y91740D01*
G01X194180Y92990D02*
Y84032D01*
X194800Y82156D01*
X196040Y80907D01*
X197590Y80490D01*
X199140Y80907D01*
X200380Y82156D01*
X201000Y84032D01*
Y92990D01*
G01X206890Y80490D02*
Y92990D01*
X210765D01*
X212005Y92365D01*
X212780Y91532D01*
X213090Y89865D01*
X212780Y88198D01*
X211850Y87157D01*
X210765Y86532D01*
X206890D01*
G01X210765D02*
X213090Y80490D01*
G01X225490D02*
X219290D01*
Y92990D01*
X225490D01*
G01X223010Y86948D02*
X219290D01*
G01X229830Y130490D02*
Y142990D01*
X232930D01*
X234170Y142365D01*
X235100Y141532D01*
X235875Y140282D01*
X236495Y138823D01*
X236650Y136740D01*
X236495Y134657D01*
X235875Y133198D01*
X235100Y131948D01*
X234170Y131115D01*
X232930Y130490D01*
X229830D01*
G01X242540D02*
Y142990D01*
X246415D01*
X247655Y142365D01*
X248430Y141532D01*
X248740Y139865D01*
X248430Y138198D01*
X247500Y137157D01*
X246415Y136532D01*
X242540D01*
G01X246415D02*
X248740Y130490D01*
G01X256180Y142990D02*
X259900D01*
G01X258040D02*
Y130490D01*
G01X256180D02*
X259900D01*
G01X267340Y142990D02*
Y130490D01*
X273540D01*
G01X279740Y142990D02*
Y130490D01*
X285940D01*
G01X311050Y141948D02*
X310120Y142573D01*
X309035Y142990D01*
X307795D01*
X306400Y142365D01*
X305315Y141323D01*
X304540Y140073D01*
X303920Y137990D01*
X303765Y136115D01*
X304075Y134240D01*
X304540Y132990D01*
X305470Y131740D01*
X306555Y130907D01*
X307640Y130490D01*
X308725D01*
X309810Y130907D01*
X310740Y131531D01*
X311515Y132365D01*
G01X316785Y130490D02*
Y142990D01*
G01X323295D02*
Y130490D01*
G01Y136740D02*
X316785D01*
G01X328565Y130490D02*
X332440Y142990D01*
X336315Y130490D01*
G01X334920Y134865D02*
X329960D01*
G01X341740Y130490D02*
Y142990D01*
X345615D01*
X346855Y142365D01*
X347630Y141532D01*
X347940Y139865D01*
X347630Y138198D01*
X346700Y137157D01*
X345615Y136532D01*
X341740D01*
G01X345615D02*
X347940Y130490D01*
G01X357240Y142990D02*
Y130490D01*
G01X353675Y142990D02*
X360805D01*
G01X369640Y130073D02*
X369330Y130282D01*
Y130698D01*
X369640Y130907D01*
X369950Y130698D01*
Y130282D01*
X369640Y130073D01*
G01Y135698D02*
X369330Y135907D01*
Y136323D01*
X369640Y136532D01*
X369950Y136323D01*
Y135907D01*
X369640Y135698D01*
G01X394440Y142990D02*
Y130490D01*
G01X390875Y142990D02*
X398005D01*
G01X406840Y130490D02*
X405600Y130698D01*
X404515Y131531D01*
X403585Y132782D01*
X402965Y134240D01*
X402655Y135907D01*
Y137573D01*
X402965Y139240D01*
X403585Y140698D01*
X404515Y141948D01*
X405600Y142782D01*
X406840Y142990D01*
X408080Y142782D01*
X409165Y141948D01*
X410095Y140698D01*
X410715Y139240D01*
X411025Y137573D01*
Y135907D01*
X410715Y134240D01*
X410095Y132782D01*
X409165Y131531D01*
X408080Y130698D01*
X406840Y130490D01*
G01X416140D02*
Y142990D01*
X419860D01*
X421100Y142365D01*
X422030Y140907D01*
X422340Y139240D01*
X422030Y137573D01*
X421255Y136323D01*
X419860Y135698D01*
X416140D01*
G01X444040Y142990D02*
Y130490D01*
G01X441870Y138823D02*
X446210D01*
G01X456440Y130490D02*
X455510Y130698D01*
X454580Y131531D01*
X453960Y132990D01*
X453650Y134657D01*
X453960Y136323D01*
X454580Y137782D01*
X455510Y138615D01*
X456440Y138823D01*
X457370Y138615D01*
X458300Y137782D01*
X458920Y136323D01*
X459075Y134657D01*
X458920Y132990D01*
X458300Y131531D01*
X457370Y130698D01*
X456440Y130490D01*
G01X482480Y137157D02*
X483100Y137782D01*
X483565Y138823D01*
X483875Y140282D01*
X483565Y141532D01*
X482945Y142365D01*
X481860Y142990D01*
X477675D01*
Y130490D01*
X482790D01*
X483875Y131323D01*
X484495Y132573D01*
X484805Y134032D01*
X484495Y135490D01*
X483565Y136740D01*
X482480Y137157D01*
X477675D01*
G01X493640Y130490D02*
X492400Y130698D01*
X491315Y131531D01*
X490385Y132782D01*
X489765Y134240D01*
X489455Y135907D01*
Y137573D01*
X489765Y139240D01*
X490385Y140698D01*
X491315Y141948D01*
X492400Y142782D01*
X493640Y142990D01*
X494880Y142782D01*
X495965Y141948D01*
X496895Y140698D01*
X497515Y139240D01*
X497825Y137573D01*
Y135907D01*
X497515Y134240D01*
X496895Y132782D01*
X495965Y131531D01*
X494880Y130698D01*
X493640Y130490D01*
G01X506040Y142990D02*
Y130490D01*
G01X502475Y142990D02*
X509605D01*
G01X518440D02*
Y130490D01*
G01X514875Y142990D02*
X522005D01*
G01X530840Y130490D02*
X529600Y130698D01*
X528515Y131531D01*
X527585Y132782D01*
X526965Y134240D01*
X526655Y135907D01*
Y137573D01*
X526965Y139240D01*
X527585Y140698D01*
X528515Y141948D01*
X529600Y142782D01*
X530840Y142990D01*
X532080Y142782D01*
X533165Y141948D01*
X534095Y140698D01*
X534715Y139240D01*
X535025Y137573D01*
Y135907D01*
X534715Y134240D01*
X534095Y132782D01*
X533165Y131531D01*
X532080Y130698D01*
X530840Y130490D01*
G01X539210D02*
Y142990D01*
X543240Y132573D01*
X547270Y142990D01*
Y130490D01*
G01X236340Y99240D02*
Y-25760D01*
G01X260365Y105490D02*
X264240Y117990D01*
X268115Y105490D01*
G01X266720Y109865D02*
X261760D01*
G01X273540Y117990D02*
Y105490D01*
X279740D01*
G01X285940Y117990D02*
Y105490D01*
X292140D01*
G01X310430Y117990D02*
Y109032D01*
X311050Y107156D01*
X312290Y105907D01*
X313840Y105490D01*
X315390Y105907D01*
X316630Y107156D01*
X317250Y109032D01*
Y117990D01*
G01X322675Y105490D02*
Y117990D01*
X329805Y105490D01*
Y117990D01*
G01X336780D02*
X340500D01*
G01X338640D02*
Y105490D01*
G01X336780D02*
X340500D01*
G01X351040Y117990D02*
Y105490D01*
G01X347475Y117990D02*
X354605D01*
G01X360185Y107156D02*
X361425Y106115D01*
X362820Y105490D01*
X364060D01*
X365300Y106115D01*
X366230Y107156D01*
X366695Y108615D01*
X366385Y110073D01*
X365610Y111323D01*
X364215Y112157D01*
X362355Y112573D01*
X361270Y113407D01*
X360805Y114865D01*
X361115Y116323D01*
X361890Y117365D01*
X362975Y117990D01*
X364060D01*
X365145Y117573D01*
X366075Y116532D01*
G01X384365Y105490D02*
X388240Y117990D01*
X392115Y105490D01*
G01X390720Y109865D02*
X385760D01*
G01X397540Y105490D02*
Y117990D01*
X401415D01*
X402655Y117365D01*
X403430Y116532D01*
X403740Y114865D01*
X403430Y113198D01*
X402500Y112157D01*
X401415Y111532D01*
X397540D01*
G01X401415D02*
X403740Y105490D01*
G01X416140D02*
X409940D01*
Y117990D01*
X416140D01*
G01X413660Y111948D02*
X409940D01*
G01X435980Y117990D02*
X439700D01*
G01X437840D02*
Y105490D01*
G01X435980D02*
X439700D01*
G01X446675D02*
Y117990D01*
X453805Y105490D01*
Y117990D01*
G01X471010Y105490D02*
Y117990D01*
X475040Y107573D01*
X479070Y117990D01*
Y105490D01*
G01X485580Y117990D02*
X489300D01*
G01X487440D02*
Y105490D01*
G01X485580D02*
X489300D01*
G01X496740Y117990D02*
Y105490D01*
X502940D01*
G01X508985Y107156D02*
X510225Y106115D01*
X511620Y105490D01*
X512860D01*
X514100Y106115D01*
X515030Y107156D01*
X515495Y108615D01*
X515185Y110073D01*
X514410Y111323D01*
X513015Y112157D01*
X511155Y112573D01*
X510070Y113407D01*
X509605Y114865D01*
X509915Y116323D01*
X510690Y117365D01*
X511775Y117990D01*
X512860D01*
X513945Y117573D01*
X514875Y116532D01*
G01X299890Y-19510D02*
Y-7010D01*
X298030Y-9510D01*
G01Y-19510D02*
X301750D01*
G01X309345Y-9093D02*
X310275Y-7844D01*
X311360Y-7218D01*
X312600Y-7010D01*
X314150Y-7427D01*
X315235Y-8468D01*
X315545Y-9718D01*
X315390Y-10969D01*
X314770Y-12010D01*
X311670Y-14093D01*
X310275Y-15552D01*
X309345Y-17635D01*
X309035Y-19510D01*
X315545D01*
G01X321280Y-17635D02*
X322210Y-18677D01*
X323295Y-19302D01*
X324690Y-19510D01*
X326085Y-19093D01*
X327170Y-18260D01*
X327945Y-16802D01*
X328100Y-15135D01*
X327790Y-13468D01*
X327015Y-12427D01*
X325930Y-11593D01*
X324845Y-11385D01*
X323760Y-11593D01*
X322365Y-12427D01*
X322830Y-7010D01*
X327015D01*
G01X337090Y-19927D02*
X336780Y-19718D01*
Y-19302D01*
X337090Y-19093D01*
X337400Y-19302D01*
Y-19718D01*
X337090Y-19927D01*
G01X346855Y-18052D02*
X347940Y-19093D01*
X349180Y-19510D01*
X350420Y-19093D01*
X351505Y-17844D01*
X352280Y-15968D01*
X352590Y-14093D01*
Y-11802D01*
X352280Y-9927D01*
X351505Y-8260D01*
X350575Y-7427D01*
X349490Y-7010D01*
X348250Y-7427D01*
X347320Y-8260D01*
X346700Y-9510D01*
X346390Y-11177D01*
X346700Y-12635D01*
X347475Y-14093D01*
X348405Y-14927D01*
X349490Y-15135D01*
X350730Y-14719D01*
X351660Y-13677D01*
X352590Y-11802D01*
G01X361890Y-19510D02*
X362975Y-19302D01*
X364215Y-18677D01*
X364990Y-17635D01*
X365300Y-16177D01*
X364990Y-14719D01*
X364060Y-13468D01*
X362665Y-12843D01*
X361115D01*
X360185Y-12427D01*
X359410Y-11385D01*
X359100Y-9927D01*
X359565Y-8468D01*
X360650Y-7427D01*
X361890Y-7010D01*
X363130Y-7427D01*
X364215Y-8468D01*
X364680Y-9927D01*
X364370Y-11385D01*
X363595Y-12427D01*
X362665Y-12843D01*
X361115D01*
X359720Y-13468D01*
X358790Y-14719D01*
X358480Y-16177D01*
X358790Y-17635D01*
X359565Y-18677D01*
X360805Y-19302D01*
X361890Y-19510D01*
G01X307950Y5490D02*
Y17990D01*
X302215Y9032D01*
X309965D01*
G01X318490Y5490D02*
Y17990D01*
X316630Y15490D01*
G01Y5490D02*
X320350D01*
G01X330890Y5073D02*
X330580Y5282D01*
Y5698D01*
X330890Y5907D01*
X331200Y5698D01*
Y5282D01*
X330890Y5073D01*
G01X339880Y7990D02*
X340810Y6531D01*
X342050Y5698D01*
X343445Y5490D01*
X344685Y5698D01*
X345925Y6740D01*
X346700Y7990D01*
X346855Y9240D01*
X346545Y10698D01*
X345460Y11740D01*
X344375Y12157D01*
X342980D01*
G01X344375D02*
X345305Y12782D01*
X346080Y13823D01*
X346390Y15073D01*
X346080Y16323D01*
X345305Y17365D01*
X343910Y17990D01*
X342515Y17782D01*
X341120Y16948D01*
G01X357550Y5490D02*
Y17990D01*
X351815Y9032D01*
X359565D01*
G01X302680Y32990D02*
X303610Y31531D01*
X304850Y30698D01*
X306245Y30490D01*
X307485Y30698D01*
X308725Y31740D01*
X309500Y32990D01*
X309655Y34240D01*
X309345Y35698D01*
X308260Y36740D01*
X307175Y37157D01*
X305780D01*
G01X307175D02*
X308105Y37782D01*
X308880Y38823D01*
X309190Y40073D01*
X308880Y41323D01*
X308105Y42365D01*
X306710Y42990D01*
X305315Y42782D01*
X303920Y41948D01*
G01X315080Y32365D02*
X316010Y31323D01*
X317095Y30698D01*
X318490Y30490D01*
X319885Y30907D01*
X320970Y31740D01*
X321745Y33198D01*
X321900Y34865D01*
X321590Y36532D01*
X320815Y37573D01*
X319730Y38407D01*
X318645Y38615D01*
X317560Y38407D01*
X316165Y37573D01*
X316630Y42990D01*
X320815D01*
G01X330890Y30073D02*
X330580Y30282D01*
Y30698D01*
X330890Y30907D01*
X331200Y30698D01*
Y30282D01*
X330890Y30073D01*
G01X345150Y30490D02*
Y42990D01*
X339415Y34032D01*
X347165D01*
G01X352280Y32990D02*
X353210Y31531D01*
X354450Y30698D01*
X355845Y30490D01*
X357085Y30698D01*
X358325Y31740D01*
X359100Y32990D01*
X359255Y34240D01*
X358945Y35698D01*
X357860Y36740D01*
X356775Y37157D01*
X355380D01*
G01X356775D02*
X357705Y37782D01*
X358480Y38823D01*
X358790Y40073D01*
X358480Y41323D01*
X357705Y42365D01*
X356310Y42990D01*
X354915Y42782D01*
X353520Y41948D01*
G01X312290Y55490D02*
Y67990D01*
X310430Y65490D01*
G01Y55490D02*
X314150D01*
G01X321745Y65907D02*
X322675Y67156D01*
X323760Y67782D01*
X325000Y67990D01*
X326550Y67573D01*
X327635Y66532D01*
X327945Y65282D01*
X327790Y64031D01*
X327170Y62990D01*
X324070Y60907D01*
X322675Y59448D01*
X321745Y57365D01*
X321435Y55490D01*
X327945D01*
G01X337090Y55073D02*
X336780Y55282D01*
Y55698D01*
X337090Y55907D01*
X337400Y55698D01*
Y55282D01*
X337090Y55073D01*
G01X349490Y67990D02*
X348250Y67573D01*
X347320Y66532D01*
X346700Y65282D01*
X346235Y63615D01*
X346080Y61740D01*
X346235Y59865D01*
X346700Y58198D01*
X347320Y56948D01*
X348250Y55907D01*
X349490Y55490D01*
X350730Y55907D01*
X351660Y56948D01*
X352280Y58198D01*
X352745Y59865D01*
X352900Y61740D01*
X352745Y63615D01*
X352280Y65282D01*
X351660Y66532D01*
X350730Y67573D01*
X349490Y67990D01*
G01X309035Y82156D02*
X310275Y81115D01*
X311670Y80490D01*
X312910D01*
X314150Y81115D01*
X315080Y82156D01*
X315545Y83615D01*
X315235Y85073D01*
X314460Y86323D01*
X313065Y87157D01*
X311205Y87573D01*
X310120Y88407D01*
X309655Y89865D01*
X309965Y91323D01*
X310740Y92365D01*
X311825Y92990D01*
X312910D01*
X313995Y92573D01*
X314925Y91532D01*
G01X322830Y92990D02*
X326550D01*
G01X324690D02*
Y80490D01*
G01X322830D02*
X326550D01*
G01X334145Y92990D02*
X340035D01*
X334145Y80490D01*
X340035D01*
G01X352590D02*
X346390D01*
Y92990D01*
X352590D01*
G01X350110Y86948D02*
X346390D01*
G01X425440Y99240D02*
Y-25760D01*
G01X454890Y-19510D02*
Y-7010D01*
X458610D01*
X459850Y-7635D01*
X460780Y-9093D01*
X461090Y-10760D01*
X460780Y-12427D01*
X460005Y-13677D01*
X458610Y-14302D01*
X454890D01*
G01X467290Y-7010D02*
Y-19510D01*
X473490D01*
G01X478915D02*
X482790Y-7010D01*
X486665Y-19510D01*
G01X485270Y-15135D02*
X480310D01*
G01X495190Y-7010D02*
Y-19510D01*
G01X491625Y-7010D02*
X498755D01*
G01X510690Y-19510D02*
X504490D01*
Y-7010D01*
X510690D01*
G01X508210Y-13052D02*
X504490D01*
G01X516580Y-19510D02*
Y-7010D01*
X519680D01*
X520920Y-7635D01*
X521850Y-8468D01*
X522625Y-9718D01*
X523245Y-11177D01*
X523400Y-13260D01*
X523245Y-15343D01*
X522625Y-16802D01*
X521850Y-18052D01*
X520920Y-18885D01*
X519680Y-19510D01*
X516580D01*
G01X454890Y5490D02*
Y17990D01*
X458610D01*
X459850Y17365D01*
X460780Y15907D01*
X461090Y14240D01*
X460780Y12573D01*
X460005Y11323D01*
X458610Y10698D01*
X454890D01*
G01X467290Y17990D02*
Y5490D01*
X473490D01*
G01X478915D02*
X482790Y17990D01*
X486665Y5490D01*
G01X485270Y9865D02*
X480310D01*
G01X495190Y17990D02*
Y5490D01*
G01X491625Y17990D02*
X498755D01*
G01X510690Y5490D02*
X504490D01*
Y17990D01*
X510690D01*
G01X508210Y11948D02*
X504490D01*
G01X516580Y5490D02*
Y17990D01*
X519680D01*
X520920Y17365D01*
X521850Y16532D01*
X522625Y15282D01*
X523245Y13823D01*
X523400Y11740D01*
X523245Y9657D01*
X522625Y8198D01*
X521850Y6948D01*
X520920Y6115D01*
X519680Y5490D01*
X516580D01*
G01X454890Y30490D02*
Y42990D01*
X458610D01*
X459850Y42365D01*
X460780Y40907D01*
X461090Y39240D01*
X460780Y37573D01*
X460005Y36323D01*
X458610Y35698D01*
X454890D01*
G01X467290Y42990D02*
Y30490D01*
X473490D01*
G01X478915D02*
X482790Y42990D01*
X486665Y30490D01*
G01X485270Y34865D02*
X480310D01*
G01X495190Y42990D02*
Y30490D01*
G01X491625Y42990D02*
X498755D01*
G01X510690Y30490D02*
X504490D01*
Y42990D01*
X510690D01*
G01X508210Y36948D02*
X504490D01*
G01X516580Y30490D02*
Y42990D01*
X519680D01*
X520920Y42365D01*
X521850Y41532D01*
X522625Y40282D01*
X523245Y38823D01*
X523400Y36740D01*
X523245Y34657D01*
X522625Y33198D01*
X521850Y31948D01*
X520920Y31115D01*
X519680Y30490D01*
X516580D01*
G01X454890Y55490D02*
Y67990D01*
X458610D01*
X459850Y67365D01*
X460780Y65907D01*
X461090Y64240D01*
X460780Y62573D01*
X460005Y61323D01*
X458610Y60698D01*
X454890D01*
G01X467290Y67990D02*
Y55490D01*
X473490D01*
G01X478915D02*
X482790Y67990D01*
X486665Y55490D01*
G01X485270Y59865D02*
X480310D01*
G01X495190Y67990D02*
Y55490D01*
G01X491625Y67990D02*
X498755D01*
G01X510690Y55490D02*
X504490D01*
Y67990D01*
X510690D01*
G01X508210Y61948D02*
X504490D01*
G01X516580Y55490D02*
Y67990D01*
X519680D01*
X520920Y67365D01*
X521850Y66532D01*
X522625Y65282D01*
X523245Y63823D01*
X523400Y61740D01*
X523245Y59657D01*
X522625Y58198D01*
X521850Y56948D01*
X520920Y56115D01*
X519680Y55490D01*
X516580D01*
G01X454890Y80490D02*
Y92990D01*
X458610D01*
X459850Y92365D01*
X460780Y90907D01*
X461090Y89240D01*
X460780Y87573D01*
X460005Y86323D01*
X458610Y85698D01*
X454890D01*
G01X467290Y92990D02*
Y80490D01*
X473490D01*
G01X478915D02*
X482790Y92990D01*
X486665Y80490D01*
G01X485270Y84865D02*
X480310D01*
G01X495190Y92990D02*
Y80490D01*
G01X491625Y92990D02*
X498755D01*
G01X510690Y80490D02*
X504490D01*
Y92990D01*
X510690D01*
G01X508210Y86948D02*
X504490D01*
G01X516580Y80490D02*
Y92990D01*
X519680D01*
X520920Y92365D01*
X521850Y91532D01*
X522625Y90282D01*
X523245Y88823D01*
X523400Y86740D01*
X523245Y84657D01*
X522625Y83198D01*
X521850Y81948D01*
X520920Y81115D01*
X519680Y80490D01*
X516580D01*
G01X552540Y99240D02*
Y-25760D01*
G01X578890Y80490D02*
X577650Y80698D01*
X576565Y81531D01*
X575635Y82782D01*
X575015Y84240D01*
X574705Y85907D01*
Y87573D01*
X575015Y89240D01*
X575635Y90698D01*
X576565Y91948D01*
X577650Y92782D01*
X578890Y92990D01*
X580130Y92782D01*
X581215Y91948D01*
X582145Y90698D01*
X582765Y89240D01*
X583075Y87573D01*
Y85907D01*
X582765Y84240D01*
X582145Y82782D01*
X581215Y81531D01*
X580130Y80698D01*
X578890Y80490D01*
G01X580130Y83823D02*
X581990Y80490D01*
G01X591290Y92990D02*
Y80490D01*
G01X587725Y92990D02*
X594855D01*
G01X603690Y80490D02*
Y86115D01*
X600590Y92990D01*
G01X606790D02*
X603690Y86115D01*
G01X593150Y-19510D02*
Y-7010D01*
X587415Y-15968D01*
X595165D01*
G01X591290Y5490D02*
X592375Y5698D01*
X593615Y6323D01*
X594390Y7365D01*
X594700Y8823D01*
X594390Y10281D01*
X593460Y11532D01*
X592065Y12157D01*
X590515D01*
X589585Y12573D01*
X588810Y13615D01*
X588500Y15073D01*
X588965Y16532D01*
X590050Y17573D01*
X591290Y17990D01*
X592530Y17573D01*
X593615Y16532D01*
X594080Y15073D01*
X593770Y13615D01*
X592995Y12573D01*
X592065Y12157D01*
X590515D01*
X589120Y11532D01*
X588190Y10281D01*
X587880Y8823D01*
X588190Y7365D01*
X588965Y6323D01*
X590205Y5698D01*
X591290Y5490D01*
G01X585090Y30490D02*
Y42990D01*
X583230Y40490D01*
G01Y30490D02*
X586950D01*
G01X597490Y42990D02*
X596250Y42573D01*
X595320Y41532D01*
X594700Y40282D01*
X594235Y38615D01*
X594080Y36740D01*
X594235Y34865D01*
X594700Y33198D01*
X595320Y31948D01*
X596250Y30907D01*
X597490Y30490D01*
X598730Y30907D01*
X599660Y31948D01*
X600280Y33198D01*
X600745Y34865D01*
X600900Y36740D01*
X600745Y38615D01*
X600280Y40282D01*
X599660Y41532D01*
X598730Y42573D01*
X597490Y42990D01*
G01X582145Y60698D02*
X583230Y62157D01*
X584160Y62990D01*
X585400Y63407D01*
X586485Y62990D01*
X587260Y62157D01*
X587880Y60907D01*
X588035Y59448D01*
X587880Y58198D01*
X587260Y56948D01*
X586330Y55907D01*
X585245Y55490D01*
X584005Y55907D01*
X582920Y57156D01*
X582300Y59032D01*
X582145Y61115D01*
X582455Y63823D01*
X582920Y65282D01*
X583695Y66740D01*
X584780Y67782D01*
X585865Y67990D01*
X586950Y67573D01*
X587725Y66532D01*
G01X597490Y55490D02*
Y67990D01*
X595630Y65490D01*
G01Y55490D02*
X599350D01*
M02*
