G04 ================== begin FILE IDENTIFICATION RECORD ==================*
G04 Layout Name:  F:/对外项目/激光测距/Hardware/PCB/VL53L0X.brd*
G04 Film Name:    SILKSCREEN_TOP*
G04 File Format:  Gerber RS274X*
G04 File Origin:  Cadence Allegro 16.6-2015-S066*
G04 Origin Date:  Fri Sep 30 11:40:01 2016*
G04 *
G04 Layer:  BOARD GEOMETRY/OUTLINE*
G04 Layer:  BOARD GEOMETRY/SILKSCREEN_TOP*
G04 Layer:  PACKAGE GEOMETRY/SILKSCREEN_TOP*
G04 *
G04 Offset:    (0.00 0.00)*
G04 Mirror:    No*
G04 Mode:      Positive*
G04 Rotation:  0*
G04 FullContactRelief:  No*
G04 UndefLineWidth:     6.00*
G04 ================== end FILE IDENTIFICATION RECORD ====================*
%FSLAX25Y25*MOIN*%
%IR0*IPPOS*OFA0.00000B0.00000*MIA0B0*SFA1.00000B1.00000*%
%ADD10C,.01969*%
%ADD11C,.001*%
%ADD12C,.005*%
%ADD13C,.006*%
%ADD14C,.008*%
%ADD15C,.00394*%
%ADD16C,.00984*%
%ADD17C,.00787*%
G75*
%LPD*%
G75*
G36*
G01X9718Y51287D02*
G03I-590J0D01*
G37*
G36*
G01X18150Y65389D02*
G03I-591J0D01*
G37*
G36*
G01X44698Y51567D02*
G03I-590J0D01*
G37*
G36*
G01X52629Y118052D02*
G03I-1181J0D01*
G37*
G54D10*
G01X123406Y95201D02*
G03I-984J0D01*
G54D11*
G01X15000Y0D02*
X122800D01*
G03X137800Y15000I0J15000D01*
G01Y122800D01*
G03X122800Y137800I-15000J0D01*
G01X15000D01*
G03X0Y122800I0J-15000D01*
G01Y15000D01*
G03X15000Y0I15000J0D01*
G54D12*
G01X34630Y130580D02*
X35630D01*
Y129680D01*
X35330Y129380D01*
X34980Y129180D01*
X34480Y129080D01*
X33980Y129180D01*
X33630Y129380D01*
X33330Y129680D01*
X33130Y130030D01*
X33030Y130430D01*
Y130780D01*
X33130Y131080D01*
X33330Y131430D01*
X33630Y131730D01*
X33930Y131930D01*
X34330Y132080D01*
X34680D01*
X35080Y131980D01*
X35380Y131780D01*
G01X36580Y129080D02*
Y132080D01*
X38880Y129080D01*
Y132080D01*
G01X40030Y129080D02*
Y132080D01*
X41030D01*
X41430Y131930D01*
X41730Y131730D01*
X41980Y131430D01*
X42180Y131080D01*
X42230Y130580D01*
X42180Y130080D01*
X41980Y129730D01*
X41730Y129430D01*
X41430Y129230D01*
X41030Y129080D01*
X40030D01*
G01X33580Y136670D02*
X34830Y133670D01*
X36080Y136670D01*
G01X39330Y136420D02*
X39030Y136570D01*
X38680Y136670D01*
X38280D01*
X37830Y136520D01*
X37480Y136270D01*
X37230Y135970D01*
X37030Y135470D01*
X36980Y135020D01*
X37080Y134570D01*
X37230Y134270D01*
X37530Y133970D01*
X37880Y133770D01*
X38230Y133670D01*
X38580D01*
X38930Y133770D01*
X39230Y133920D01*
X39480Y134120D01*
G01X42730Y136420D02*
X42430Y136570D01*
X42080Y136670D01*
X41680D01*
X41230Y136520D01*
X40880Y136270D01*
X40630Y135970D01*
X40430Y135470D01*
X40380Y135020D01*
X40480Y134570D01*
X40630Y134270D01*
X40930Y133970D01*
X41280Y133770D01*
X41630Y133670D01*
X41980D01*
X42330Y133770D01*
X42630Y133920D01*
X42880Y134120D01*
G01X43700Y129680D02*
X44000Y129330D01*
X44400Y129130D01*
X44850Y129080D01*
X45250Y129130D01*
X45650Y129380D01*
X45900Y129680D01*
X45950Y129980D01*
X45850Y130330D01*
X45500Y130580D01*
X45150Y130680D01*
X44700D01*
G01X45150D02*
X45450Y130830D01*
X45700Y131080D01*
X45800Y131380D01*
X45700Y131680D01*
X45450Y131930D01*
X45000Y132080D01*
X44550Y132030D01*
X44100Y131830D01*
G01X48200Y128980D02*
X48100Y129030D01*
Y129130D01*
X48200Y129180D01*
X48300Y129130D01*
Y129030D01*
X48200Y128980D01*
G01X50500Y129680D02*
X50800Y129330D01*
X51200Y129130D01*
X51650Y129080D01*
X52050Y129130D01*
X52450Y129380D01*
X52700Y129680D01*
X52750Y129980D01*
X52650Y130330D01*
X52300Y130580D01*
X51950Y130680D01*
X51500D01*
G01X51950D02*
X52250Y130830D01*
X52500Y131080D01*
X52600Y131380D01*
X52500Y131680D01*
X52250Y131930D01*
X51800Y132080D01*
X51350Y132030D01*
X50900Y131830D01*
G01X53750Y132080D02*
X55000Y129080D01*
X56250Y132080D01*
G01X47220Y135170D02*
X48220D01*
Y134270D01*
X47920Y133970D01*
X47570Y133770D01*
X47070Y133670D01*
X46570Y133770D01*
X46220Y133970D01*
X45920Y134270D01*
X45720Y134620D01*
X45620Y135020D01*
Y135370D01*
X45720Y135670D01*
X45920Y136020D01*
X46220Y136320D01*
X46520Y136520D01*
X46920Y136670D01*
X47270D01*
X47670Y136570D01*
X47970Y136370D01*
G01X49170Y133670D02*
Y136670D01*
X51470Y133670D01*
Y136670D01*
G01X52620Y133670D02*
Y136670D01*
X53620D01*
X54020Y136520D01*
X54320Y136320D01*
X54570Y136020D01*
X54770Y135670D01*
X54820Y135170D01*
X54770Y134670D01*
X54570Y134320D01*
X54320Y134020D01*
X54020Y133820D01*
X53620Y133670D01*
X52620D01*
G01X57620Y129480D02*
X58020Y129230D01*
X58470Y129080D01*
X58870D01*
X59270Y129230D01*
X59570Y129480D01*
X59720Y129830D01*
X59620Y130180D01*
X59370Y130480D01*
X58920Y130680D01*
X58320Y130780D01*
X57970Y130980D01*
X57820Y131330D01*
X57920Y131680D01*
X58170Y131930D01*
X58520Y132080D01*
X58870D01*
X59220Y131980D01*
X59520Y131730D01*
G01X60970Y129080D02*
Y132080D01*
X61970D01*
X62370Y131930D01*
X62670Y131730D01*
X62920Y131430D01*
X63120Y131080D01*
X63170Y130580D01*
X63120Y130080D01*
X62920Y129730D01*
X62670Y129430D01*
X62370Y129230D01*
X61970Y129080D01*
X60970D01*
G01X64220D02*
X65470Y132080D01*
X66720Y129080D01*
G01X66270Y130130D02*
X64670D01*
G01X57960Y134070D02*
X58360Y133820D01*
X58810Y133670D01*
X59210D01*
X59610Y133820D01*
X59910Y134070D01*
X60060Y134420D01*
X59960Y134770D01*
X59710Y135070D01*
X59260Y135270D01*
X58660Y135370D01*
X58310Y135570D01*
X58160Y135920D01*
X58260Y136270D01*
X58510Y136520D01*
X58860Y136670D01*
X59210D01*
X59560Y136570D01*
X59860Y136320D01*
G01X63510Y136420D02*
X63210Y136570D01*
X62860Y136670D01*
X62460D01*
X62010Y136520D01*
X61660Y136270D01*
X61410Y135970D01*
X61210Y135470D01*
X61160Y135020D01*
X61260Y134570D01*
X61410Y134270D01*
X61710Y133970D01*
X62060Y133770D01*
X62410Y133670D01*
X62760D01*
X63110Y133770D01*
X63410Y133920D01*
X63660Y134120D01*
G01X64810Y136670D02*
Y133670D01*
X66810D01*
G01X71440Y129080D02*
Y132080D01*
X72440D01*
X72840Y131930D01*
X73140Y131730D01*
X73390Y131430D01*
X73590Y131080D01*
X73640Y130580D01*
X73590Y130080D01*
X73390Y129730D01*
X73140Y129430D01*
X72840Y129230D01*
X72440Y129080D01*
X71440D01*
G01X77040Y131830D02*
X76740Y131980D01*
X76390Y132080D01*
X75990D01*
X75540Y131930D01*
X75190Y131680D01*
X74940Y131380D01*
X74740Y130880D01*
X74690Y130430D01*
X74790Y129980D01*
X74940Y129680D01*
X75240Y129380D01*
X75590Y129180D01*
X75940Y129080D01*
X76290D01*
X76640Y129180D01*
X76940Y129330D01*
X77190Y129530D01*
G01X70100Y133670D02*
Y136670D01*
X71350D01*
X71750Y136520D01*
X72000Y136320D01*
X72100Y135920D01*
X72000Y135520D01*
X71700Y135270D01*
X71350Y135120D01*
X70100D01*
G01X71350D02*
X72100Y133670D01*
G01X73450Y134070D02*
X73850Y133820D01*
X74300Y133670D01*
X74700D01*
X75100Y133820D01*
X75400Y134070D01*
X75550Y134420D01*
X75450Y134770D01*
X75200Y135070D01*
X74750Y135270D01*
X74150Y135370D01*
X73800Y135570D01*
X73650Y135920D01*
X73750Y136270D01*
X74000Y136520D01*
X74350Y136670D01*
X74700D01*
X75050Y136570D01*
X75350Y136320D01*
G01X77900Y136670D02*
Y133670D01*
G01X76750Y136670D02*
X79050D01*
G01X81910Y129080D02*
Y132080D01*
X82910D01*
X83310Y131930D01*
X83610Y131730D01*
X83860Y131430D01*
X84060Y131080D01*
X84110Y130580D01*
X84060Y130080D01*
X83860Y129730D01*
X83610Y129430D01*
X83310Y129230D01*
X82910Y129080D01*
X81910D01*
G01X86410D02*
Y132080D01*
X85810Y131480D01*
G01Y129080D02*
X87010D01*
G01X89260Y130080D02*
X90460D01*
G01X89810Y130730D02*
Y129430D01*
G01X82090Y133670D02*
Y136670D01*
X83090D01*
X83490Y136520D01*
X83790Y136320D01*
X84040Y136020D01*
X84240Y135670D01*
X84290Y135170D01*
X84240Y134670D01*
X84040Y134320D01*
X83790Y134020D01*
X83490Y133820D01*
X83090Y133670D01*
X82090D01*
G01X86590D02*
Y136670D01*
X85990Y136070D01*
G01Y133670D02*
X87190D01*
G01X89340Y134670D02*
X90640D01*
G01X93820Y128960D02*
Y131960D01*
X94820D01*
X95220Y131810D01*
X95520Y131610D01*
X95770Y131310D01*
X95970Y130960D01*
X96020Y130460D01*
X95970Y129960D01*
X95770Y129610D01*
X95520Y129310D01*
X95220Y129110D01*
X94820Y128960D01*
X93820D01*
G01X97370Y131460D02*
X97670Y131760D01*
X98020Y131910D01*
X98420Y131960D01*
X98920Y131860D01*
X99270Y131610D01*
X99370Y131310D01*
X99320Y131010D01*
X99120Y130760D01*
X98120Y130260D01*
X97670Y129910D01*
X97370Y129410D01*
X97270Y128960D01*
X99370D01*
G01X101170Y129960D02*
X102370D01*
G01X101720Y130610D02*
Y129310D01*
G01X94180Y133670D02*
Y136670D01*
X95180D01*
X95580Y136520D01*
X95880Y136320D01*
X96130Y136020D01*
X96330Y135670D01*
X96380Y135170D01*
X96330Y134670D01*
X96130Y134320D01*
X95880Y134020D01*
X95580Y133820D01*
X95180Y133670D01*
X94180D01*
G01X97730Y136170D02*
X98030Y136470D01*
X98380Y136620D01*
X98780Y136670D01*
X99280Y136570D01*
X99630Y136320D01*
X99730Y136020D01*
X99680Y135720D01*
X99480Y135470D01*
X98480Y134970D01*
X98030Y134620D01*
X97730Y134120D01*
X97630Y133670D01*
X99730D01*
G01X101430Y134670D02*
X102730D01*
G01X105790Y128830D02*
Y131830D01*
G01X107690D02*
X105790Y129980D01*
G01X107990Y128830D02*
X106640Y130830D01*
G01X111290Y128830D02*
X109290D01*
Y131830D01*
X111290D01*
G01X110490Y130380D02*
X109290D01*
G01X113690Y128830D02*
Y130180D01*
X112690Y131830D01*
G01X114690D02*
X113690Y130180D01*
G01X106270Y133670D02*
Y136670D01*
G01X108170D02*
X106270Y134820D01*
G01X108470Y133670D02*
X107120Y135670D01*
G01X111770Y133670D02*
X109770D01*
Y136670D01*
X111770D01*
G01X110970Y135220D02*
X109770D01*
G01X114170Y133670D02*
Y135020D01*
X113170Y136670D01*
G01X115170D02*
X114170Y135020D01*
G54D13*
G01X112490Y53030D02*
Y58030D01*
X132490D01*
Y38030D01*
X112490D01*
Y53030D01*
G54D14*
G01X42260Y20513D02*
X72260D01*
Y513D01*
X42260D01*
Y20513D01*
G54D15*
G01X8043Y68621D02*
Y72952D01*
X15917D01*
Y68228D01*
X8043D01*
Y68621D01*
G01X15623Y102791D02*
Y107122D01*
X23497D01*
Y102398D01*
X15623D01*
Y102791D01*
G01X36204Y37160D02*
X26362D01*
Y30860D01*
X36598D01*
Y37160D01*
X36204D01*
G01X26756Y38860D02*
X36598D01*
Y45160D01*
X26362D01*
Y38860D01*
X26756D01*
G01X36204Y53160D02*
X26362D01*
Y46860D01*
X36598D01*
Y53160D01*
X36204D01*
G01X26756Y54860D02*
X36598D01*
Y61160D01*
X26362D01*
Y54860D01*
X26756D01*
G01X30693Y69961D02*
Y74292D01*
X38567D01*
Y69568D01*
X30693D01*
Y69961D01*
G01Y82801D02*
Y87132D01*
X38567D01*
Y82408D01*
X30693D01*
Y82801D01*
G01Y76381D02*
Y80712D01*
X38567D01*
Y75988D01*
X30693D01*
Y76381D01*
G01Y89221D02*
Y93552D01*
X38567D01*
Y88828D01*
X30693D01*
Y89221D01*
G01X30573Y116391D02*
Y120722D01*
X38447D01*
Y115998D01*
X30573D01*
Y116391D01*
G01Y123261D02*
Y127592D01*
X38447D01*
Y122868D01*
X30573D01*
Y123261D01*
G01X43003Y23901D02*
Y28232D01*
X50877D01*
Y23508D01*
X43003D01*
Y23901D01*
G01X72863Y22721D02*
Y27052D01*
X80737D01*
Y22328D01*
X72863D01*
Y22721D01*
G01X80677Y48479D02*
Y44148D01*
X72803D01*
Y48872D01*
X80677D01*
Y48479D01*
G01X72803Y52531D02*
Y56862D01*
X80677D01*
Y52138D01*
X72803D01*
Y52531D01*
G01X90597Y26659D02*
Y22328D01*
X82723D01*
Y27052D01*
X90597D01*
Y26659D01*
G01X93277Y48609D02*
Y44278D01*
X85403D01*
Y49002D01*
X93277D01*
Y48609D01*
G01X85343Y52371D02*
Y56702D01*
X93217D01*
Y51978D01*
X85343D01*
Y52371D01*
G01X93673Y22721D02*
Y27052D01*
X101547D01*
Y22328D01*
X93673D01*
Y22721D01*
G01X108597Y122719D02*
Y118388D01*
X100723D01*
Y123112D01*
X108597D01*
Y122719D01*
G01X102403Y30731D02*
Y35062D01*
X110277D01*
Y30338D01*
X102403D01*
Y30731D01*
G01X114587Y88129D02*
Y83798D01*
X106713D01*
Y88522D01*
X114587D01*
Y88129D01*
G01X112483Y60961D02*
Y65292D01*
X120357D01*
Y60568D01*
X112483D01*
Y60961D01*
G01X115853Y84191D02*
Y88522D01*
X123727D01*
Y83798D01*
X115853D01*
Y84191D01*
G01X123973Y61161D02*
Y65492D01*
X131847D01*
Y60768D01*
X123973D01*
Y61161D01*
G01X132867Y88129D02*
Y83798D01*
X124993D01*
Y88522D01*
X132867D01*
Y88129D01*
G54D16*
G01X41550Y96430D02*
Y113730D01*
X27350D01*
Y96430D01*
X41550D01*
G01X37752Y22777D02*
G03I-492J0D01*
G01X43813Y100109D02*
G03I-492J0D01*
G01X77752Y-1751D02*
G03I-492J0D01*
G01X83932Y40952D02*
G03I-492J0D01*
G01X87752Y-1751D02*
G03I-492J0D01*
G01X97752D02*
G03I-492J0D01*
G01X97522Y41082D02*
G03I-492J0D01*
G01X133151Y90083D02*
G03I-493J0D01*
G54D17*
G01X20760Y36571D02*
Y37359D01*
X7374D01*
Y36571D01*
G01Y31847D02*
Y31059D01*
X20760D01*
Y31611D01*
G01X7374Y53897D02*
Y53109D01*
X20760D01*
Y53661D01*
G01Y58621D02*
Y59409D01*
X7374D01*
Y58621D01*
G01X16626Y31059D02*
Y37359D01*
G01X14679Y39791D02*
Y51209D01*
G01X16626Y53109D02*
Y59409D01*
G01X11890Y66925D02*
Y63775D01*
G01X33323Y946D02*
X42260D01*
Y20513D01*
X32260D01*
Y946D01*
X34898D01*
G01X46774Y37411D02*
Y31111D01*
G01X42640Y31899D02*
Y31111D01*
X56026D01*
Y31899D01*
G01Y36623D02*
Y37411D01*
X42640D01*
Y36859D01*
G01X46793Y61191D02*
Y54891D01*
G01X42659Y55679D02*
Y54891D01*
X56045D01*
Y55679D01*
G01Y60403D02*
Y61191D01*
X42659D01*
Y60639D01*
G01X49659Y40071D02*
Y51489D01*
G01X54597Y82028D02*
Y118052D01*
X90621D01*
Y82028D01*
X54597D01*
G01X81197Y20080D02*
X72260D01*
Y513D01*
X82260D01*
Y20080D01*
X79622D01*
G01X70841Y36720D02*
X82259D01*
Y34160D01*
X70841D01*
Y36720D01*
G01X91197Y20080D02*
X82260D01*
Y513D01*
X92260D01*
Y20080D01*
X89622D01*
G01X101197D02*
X92260D01*
Y513D01*
X102260D01*
Y20080D01*
X99622D01*
G01X84431Y36850D02*
X95849D01*
Y34290D01*
X84431D01*
Y36850D01*
G01X126359Y110556D02*
Y91264D01*
X113761D01*
Y110556D01*
X126359D01*
M02*
